<svg width="24" height="24" viewBox="0 0 24 24" fill="none" xmlns="http://www.w3.org/2000/svg">
<path d="M15.2475 16.11L16.9275 14.43C17.1538 14.2065 17.4401 14.0536 17.7516 13.9897C18.0631 13.9258 18.3865 13.9537 18.6825 14.07L20.73 14.8875C21.0291 15.0089 21.2856 15.2161 21.4671 15.4831C21.6486 15.75 21.7471 16.0647 21.75 16.3875V20.1375C21.7483 20.3571 21.7021 20.574 21.6143 20.7753C21.5265 20.9766 21.3989 21.158 21.2391 21.3087C21.0794 21.4593 20.8908 21.5761 20.6847 21.6519C20.4786 21.7278 20.2593 21.7611 20.04 21.75C5.69251 20.8575 2.79751 8.7075 2.25001 4.0575C2.22459 3.82915 2.24781 3.59801 2.31815 3.37928C2.38848 3.16055 2.50432 2.95919 2.65806 2.78845C2.8118 2.61771 2.99995 2.48145 3.21013 2.38865C3.42031 2.29584 3.64776 2.24859 3.87751 2.25H7.50001C7.82327 2.25096 8.13884 2.3486 8.40615 2.53037C8.67347 2.71214 8.88028 2.96973 9.00001 3.27L9.81751 5.3175C9.9377 5.6123 9.96836 5.93598 9.90567 6.24811C9.84298 6.56024 9.68971 6.84697 9.46501 7.0725L7.78501 8.7525C7.78501 8.7525 8.75251 15.3 15.2475 16.11Z" fill="#626262"/>
</svg>
