<svg width="48" height="48" viewBox="0 0 48 48" fill="none" xmlns="http://www.w3.org/2000/svg">
<circle cx="24" cy="24" r="24" fill="#262626"/>
<circle cx="24" cy="24" r="15" fill="white"/>
<path d="M26.9769 27.7675L28.5169 26.2275C28.7243 26.0227 28.9867 25.8824 29.2723 25.8238C29.5579 25.7653 29.8543 25.7909 30.1256 25.8975L32.0025 26.6469C32.2767 26.7582 32.5118 26.9481 32.6782 27.1928C32.8446 27.4375 32.9348 27.726 32.9375 28.0219V31.4594C32.9359 31.6607 32.8936 31.8595 32.8131 32.044C32.7326 32.2285 32.6156 32.3948 32.4692 32.5329C32.3227 32.671 32.1499 32.7781 31.961 32.8476C31.7721 32.9171 31.571 32.9477 31.37 32.9375C18.2181 32.1194 15.5644 20.9819 15.0625 16.7194C15.0392 16.5101 15.0605 16.2982 15.125 16.0977C15.1894 15.8972 15.2956 15.7126 15.4365 15.5561C15.5775 15.3996 15.7499 15.2747 15.9426 15.1896C16.1353 15.1045 16.3438 15.0612 16.5544 15.0625H19.875C20.1713 15.0634 20.4606 15.1529 20.7056 15.3195C20.9507 15.4861 21.1403 15.7222 21.25 15.9975L21.9994 17.8744C22.1095 18.1446 22.1377 18.4413 22.0802 18.7274C22.0227 19.0135 21.8822 19.2764 21.6762 19.4831L20.1362 21.0231C20.1362 21.0231 21.0231 27.025 26.9769 27.7675Z" fill="#137FFE"/>
</svg>
